<?xml version="1.0" encoding="utf-8"?>
<!-- Generator: Adobe Illustrator 19.0.0, SVG Export Plug-In . SVG Version: 6.00 Build 0)  -->
<svg version="1.1" xmlns="http://www.w3.org/2000/svg" xmlns:xlink="http://www.w3.org/1999/xlink" x="0px" y="0px"
	 viewBox="0 0 416 386.5" style="enable-background:new 0 0 416 386.5;" xml:space="preserve">
<style type="text/css">
	.st0{stroke:#000000;stroke-width:30;stroke-miterlimit:10;}
	.st1{fill:#626666;fill-opacity:0.1;}
	.st2{fill:#D6D8DE;}
	.st3{fill:none;stroke:#468FA0;stroke-width:2;stroke-miterlimit:10;}
	.st4{fill:#3D59A8;}
	.st5{fill:#EF4545;}
	.st6{fill:#46BCDF;}
	.st7{fill:none;}
	.st8{fill:#626666;}
	.st9{fill:#B5B5B6;}
	.st10{fill:#66BF71;}
</style>
<g id="Layer_1">
	<path id="XMLID_5_" class="st0" d="M-102.5,251.8"/>
</g>
<g id="Layer_2">
	<polygon id="XMLID_89_" class="st1" points="410.2,364.1 373.1,382.5 359,354.1 	"/>
	<polygon id="XMLID_3_" class="st2" points="373.2,382.5 141.2,338 141.2,52.8 373.2,8.3 	"/>
	<polygon id="XMLID_53_" class="st1" points="353.7,56.8 279.8,67.6 279.8,49.3 353.7,37.1 	"/>
	<polygon id="XMLID_54_" class="st1" points="353.7,123 279.8,128.6 279.8,78.2 353.7,68.4 	"/>
	<polygon id="XMLID_55_" class="st1" points="353.7,180.3 279.8,181.5 279.8,138.9 353.7,134.1 	"/>
	<line id="XMLID_57_" class="st3" x1="156.2" y1="211.4" x2="156.2" y2="301.3"/>
	<line id="XMLID_56_" class="st3" x1="155.2" y1="301.7" x2="250.3" y2="315"/>
	<polygon id="XMLID_58_" class="st4" points="182.6,305 157.2,301.5 157.2,258.4 182.6,260.6 	"/>
	<polygon id="XMLID_59_" class="st5" points="212.2,309.2 184.9,305.3 184.9,246.2 212.2,247.9 	"/>
	<polygon id="XMLID_60_" class="st6" points="244.7,313.7 215.2,309.6 215.2,222.8 244.7,223.8 	"/>
	<polygon id="XMLID_61_" class="st1" points="353.7,280.2 267.5,272.5 267.5,230.5 353.7,234 	"/>
	<polygon id="XMLID_63_" class="st1" points="353.7,331.2 267.5,318.9 267.5,284.7 353.7,293.6 	"/>
	<polygon id="XMLID_69_" class="st1" points="233,334.6 166.4,323.5 166.4,311.4 233,321.4 	"/>
	<line id="XMLID_74_" class="st7" x1="347.3" y1="320.6" x2="300.3" y2="308"/>
</g>
<g id="Layer_4">
	<path id="XMLID_72_" class="st1" d="M88.6,344.2l68.2,13.2c2.5,0.5,4.1,2.9,3.6,5.4l-0.6,3.3c-0.5,2.5-2.9,4.1-5.4,3.6l-68.2-13.2
		c-2.5-0.5-4.1-2.9-3.6-5.4l0.6-3.3C83.7,345.3,86.1,343.7,88.6,344.2z"/>
	<ellipse id="XMLID_73_" class="st1" cx="84.9" cy="343.8" rx="3.6" ry="5.5"/>
	<path id="XMLID_68_" class="st8" d="M149.7,372l-84.9-16c-2-0.4-3.3-2.3-2.9-4.3l1.3-6.9c0.4-2,2.3-3.3,4.3-2.9l84.9,16
		c2,0.4,3.3,2.3,2.9,4.3l-1.3,6.9C153.6,371.1,151.7,372.4,149.7,372z"/>
	<path id="XMLID_93_" class="st8" d="M87.1,350c0,7.1-18,12.8-40.3,12.8c-22.2,0-40.3-5.7-40.3-12.8c0-1.7,1.1-3.4,3.1-4.9
		c0.9-0.7,2.1-1.4,3.4-2c7.2-3.5,19.6-5.8,33.8-5.8c14.2,0,26.6,2.3,33.8,5.8c1.3,0.6,2.5,1.3,3.4,2C86,346.6,87.1,348.3,87.1,350z"
		/>
	<path id="XMLID_94_" class="st8" d="M87.1,340.2c0,1.7-1.1,3.4-3.1,4.9c-6.1,4.6-20.4,7.9-37.2,7.9c-16.8,0-31.1-3.2-37.2-7.9
		c-2-1.5-3.1-3.2-3.1-4.9c0-7.1,18-12.8,40.3-12.8C69.1,327.4,87.1,333.1,87.1,340.2z"/>
	<path id="XMLID_107_" class="st9" d="M81.8,340.2c0,6.1-15.7,11.1-35,11.1c-7.7,0-14.8-0.8-20.6-2.1c-2.7-0.6-5-1.3-7.1-2.2
		l-0.6-0.3l-0.2-0.1c0,0-0.1,0-0.1-0.1c-4-1.8-6.4-4-6.4-6.4c0-5.7,13.5-10.4,30.9-11c1.3-0.1,2.7-0.1,4.1-0.1
		c2.7,0,5.4,0.1,7.9,0.3l0.1,0C70.3,330.5,81.8,334.9,81.8,340.2z"/>
	<path id="XMLID_96_" class="st2" d="M54.8,329.4l-28.6,19.8c-2.7-0.6-5-1.3-7.1-2.2l-0.6-0.3l-0.2-0.1l-0.1-0.1l0,0l24.5-17.4
		c1.3-0.1,2.7-0.1,4.1-0.1c2.7,0,5.4,0.1,7.9,0.3L54.8,329.4z"/>
	<rect id="XMLID_62_" x="6.5" y="340.2" class="st8" width="4.4" height="9.8"/>
	<rect id="XMLID_66_" x="82.7" y="340.2" class="st8" width="4.4" height="9.8"/>
	
		<ellipse id="XMLID_71_" transform="matrix(0.9913 0.1317 -0.1317 0.9913 49.3523 -16.7119)" class="st8" cx="151" cy="364.8" rx="4.6" ry="6.8"/>
</g>
<g id="Layer_3">
	<path id="XMLID_70_" class="st5" d="M264,119.5c0,26.4-12.3,49.9-30.1,62.8l-28.7-57.6L233.8,62C251.6,71.7,264,93.1,264,119.5z"/>
	<path id="XMLID_67_" class="st6" d="M229.7,180c-8.5,6.2-18.3,9.7-28.4,9.8c-9.2,0.1-17.7-2.7-24.9-7.6c-15.1-10.2-25-29.8-25-52.6
		s9.9-44.1,25-56.9l26.1,52.5L229.7,180z"/>
	<path id="XMLID_65_" class="st10" d="M231.9,60l-28.1,61.5l-26.9-53.9c7.4-6.4,16.1-10.8,25.6-12.4C213,53.4,223.1,55.2,231.9,60z"
		/>
</g>
</svg>
