<?xml version="1.0" encoding="utf-8"?>
<!-- Generator: Adobe Illustrator 19.0.0, SVG Export Plug-In . SVG Version: 6.00 Build 0)  -->
<svg version="1.1" id="Layer_1" xmlns="http://www.w3.org/2000/svg" xmlns:xlink="http://www.w3.org/1999/xlink" x="0px" y="0px"
	 viewBox="0 0 147 126.5" style="enable-background:new 0 0 147 126.5;" xml:space="preserve">
<style type="text/css">
	.st0{fill:#3A3A3A;}
	.st1{fill:#46BCDF;}
	.st2{clip-path:url(#XMLID_3_);fill:#D6D8DE;stroke:#FFFFFF;stroke-width:3;stroke-miterlimit:10;}
	.st3{fill:#EF4545;}
	.st4{clip-path:url(#XMLID_4_);fill:#D6D8DE;stroke:#FFFFFF;stroke-width:3;stroke-miterlimit:10;}
	.st5{fill:#66BF71;}
	.st6{clip-path:url(#XMLID_5_);fill:#D6D8DE;stroke:#FFFFFF;stroke-width:3;stroke-miterlimit:10;}
</style>
<path id="XMLID_2_" class="st0" d="M140.4,120.2H7.4c-0.7,0-1.2-0.6-1.2-1.3l0,0c0-0.7,0.6-1.3,1.2-1.3h132.9c0.7,0,1.3,0.6,1.3,1.3
	l0,0C141.6,119.6,141.1,120.2,140.4,120.2z"/>
<path id="XMLID_101_" class="st1" d="M127.1,86.1v27.7h7.2v4.7H21.8c-8.6,0-15.6-7-15.6-15.6v-5.8c0-8.6,7-15.6,15.6-15.6h112.6v4.7
	H127.1z"/>
<path id="XMLID_98_" class="st0" d="M127.1,86.1v27.7H24.4c-6.1,0-11-4.9-11-11v-5.8c0-6.1,4.9-11,11-11H127.1z"/>
<g id="XMLID_95_">
	<defs>
		<path id="XMLID_96_" d="M131.6,86.1v27.7H29.5c-6.3,0-11.4-4.9-11.4-11v-5.8c0-6.1,5.1-11,11.4-11H131.6z"/>
	</defs>
	<use xlink:href="#XMLID_96_"  style="overflow:visible;fill:#D6D8DE;"/>
	<clipPath id="XMLID_3_">
		<use xlink:href="#XMLID_96_"  style="overflow:visible;"/>
	</clipPath>
	<line id="XMLID_90_" class="st2" x1="19.1" y1="91" x2="134.7" y2="91"/>
	<line id="XMLID_91_" class="st2" x1="17.2" y1="97.6" x2="134.7" y2="97.6"/>
	<line id="XMLID_93_" class="st2" x1="16.9" y1="103.7" x2="134.7" y2="103.7"/>
	<line id="XMLID_94_" class="st2" x1="18.5" y1="109.4" x2="134.7" y2="109.4"/>
</g>
<path id="XMLID_63_" class="st3" d="M131.7,50.8v27.7h7.2v4.7H26.4c-8.6,0-15.6-7-15.6-15.6v-5.8c0-8.6,7-15.6,15.6-15.6H139v4.7
	H131.7z"/>
<path id="XMLID_62_" class="st0" d="M131.7,50.8v27.7H29c-6.1,0-11-4.9-11-11v-5.8c0-6.1,4.9-11,11-11H131.7z"/>
<g id="XMLID_8_">
	<defs>
		<path id="XMLID_52_" d="M136.2,50.8v27.7H34.1c-6.3,0-11.4-4.9-11.4-11v-5.8c0-6.1,5.1-11,11.4-11H136.2z"/>
	</defs>
	<use xlink:href="#XMLID_52_"  style="overflow:visible;fill:#D6D8DE;"/>
	<clipPath id="XMLID_4_">
		<use xlink:href="#XMLID_52_"  style="overflow:visible;"/>
	</clipPath>
	<line id="XMLID_61_" class="st4" x1="23.7" y1="55.6" x2="139.3" y2="55.6"/>
	<line id="XMLID_60_" class="st4" x1="21.8" y1="62.3" x2="139.3" y2="62.3"/>
	<line id="XMLID_58_" class="st4" x1="21.5" y1="68.4" x2="139.3" y2="68.4"/>
	<line id="XMLID_56_" class="st4" x1="23.1" y1="74.1" x2="139.3" y2="74.1"/>
</g>
<path id="XMLID_102_" class="st5" d="M20.7,42l0-27.7l-7.2,0l0-4.7L126,9.6c8.6,0,15.6,7,15.6,15.6l0,5.8c0,8.6-7,15.6-15.6,15.6
	L13.4,46.7l0-4.7L20.7,42z"/>
<path id="XMLID_100_" class="st0" d="M20.7,42l0-27.7l102.7-0.1c6.1,0,11,4.9,11,11l0,5.8c0,6.1-4.9,11-11,11L20.7,42z"/>
<g id="XMLID_73_">
	<defs>
		<path id="XMLID_75_" d="M16.2,42l0-27.7l102.1-0.1c6.3,0,11.4,4.9,11.4,10.9l0,5.8c0,6.1-5.1,11-11.4,11L16.2,42z"/>
	</defs>
	<use xlink:href="#XMLID_75_"  style="overflow:visible;fill:#D6D8DE;"/>
	<clipPath id="XMLID_5_">
		<use xlink:href="#XMLID_75_"  style="overflow:visible;"/>
	</clipPath>
	<line id="XMLID_99_" class="st6" x1="128.7" y1="37.1" x2="13.1" y2="37.2"/>
	<line id="XMLID_97_" class="st6" x1="130.5" y1="30.5" x2="13.1" y2="30.6"/>
	<line id="XMLID_92_" class="st6" x1="130.9" y1="24.3" x2="13.1" y2="24.4"/>
	<line id="XMLID_89_" class="st6" x1="129.3" y1="18.6" x2="13.1" y2="18.7"/>
</g>
</svg>
