<?xml version="1.0" encoding="utf-8"?>
<!-- Generator: Adobe Illustrator 19.0.0, SVG Export Plug-In . SVG Version: 6.00 Build 0)  -->
<svg version="1.1" xmlns="http://www.w3.org/2000/svg" xmlns:xlink="http://www.w3.org/1999/xlink" x="0px" y="0px"
	 viewBox="0 0 219.3 306.7" style="enable-background:new 0 0 219.3 306.7;" xml:space="preserve">
<style type="text/css">
	.st0{fill:#EF4545;}
	.st1{fill:#491D1D;}
	.st2{fill:#454CA0;}
	.st3{fill:#7C2323;}
	.st4{fill:#361414;}
	.st5{fill:#D6D8DE;}
	.st6{fill:#46BCDF;}
	.st7{fill:#626666;}
	.st8{fill:#66BF71;}
</style>
<g id="Layer_1">
</g>
<g id="Layer_2">
	<polygon id="XMLID_2_" class="st0" points="171.4,147.9 171.4,241.8 170.7,242.2 90,288.8 90,195.7 90,194.9 90.7,194.5 	"/>
	<polygon id="XMLID_49_" class="st1" points="168.2,168.2 168.2,234.3 93,277.8 93,211.5 	"/>
	<polygon id="XMLID_40_" class="st2" points="90,195.9 9.4,149.3 8.7,148.9 8.7,148.2 8.6,55 89.3,101.6 90,102 90,102.8 	"/>
	<polygon id="XMLID_36_" class="st2" points="171.4,55 90.7,101.6 90,102 90,102 89.3,101.6 8.6,55 89.3,8.4 90,8 90.7,8.4 	"/>
	<polygon id="XMLID_31_" class="st0" points="171.4,55 171.4,148.9 170.7,149.3 90,195.9 90,102.8 90,102 90.7,101.6 	"/>
	<polygon id="XMLID_1_" class="st2" points="90,288.1 9.4,241.5 8.7,241.1 8.7,240.3 8.6,147.2 89.3,193.7 90,194.1 90,194.9 	"/>
	<path id="XMLID_4_" class="st0" d="M90,147.9"/>
	<path id="XMLID_6_" class="st0" d="M191.4,141.3"/>
	<polygon id="XMLID_33_" class="st3" points="168.2,93 168.2,140.2 93.2,183.5 93.2,136.3 	"/>
	<polygon id="XMLID_5_" class="st3" points="168.2,76.7 168.2,84.9 93.2,128.8 93.2,119.9 	"/>
	<polygon id="XMLID_7_" class="st4" points="168.2,84.9 168.2,86.3 168.2,93 165.6,87.9 93.2,130.2 93.2,128.2 	"/>
	<polygon id="XMLID_30_" class="st5" points="121.3,125.5 121.3,140.9 96.8,155.1 96.8,139.6 	"/>
	<g id="XMLID_41_">
		<polygon id="XMLID_8_" class="st6" points="168.2,176 168.2,227 93.3,270.4 93.3,223.1 148.6,191.2 154.6,183.5 		"/>
		<polygon id="XMLID_37_" class="st5" points="168.1,181.5 94.3,224 99,226.7 171.9,183.9 		"/>
		<polygon id="XMLID_38_" class="st5" points="97.6,271.3 94.3,269.7 94.3,224 97.2,224 		"/>
		<polygon id="XMLID_29_" class="st6" points="171.9,182 171.9,229.2 97,272.5 97,225.3 		"/>
		<polygon id="XMLID_39_" class="st6" points="97,272.5 93.3,270.4 94.3,269.6 97.4,271.2 		"/>
	</g>
	<g id="XMLID_45_">
		<polygon id="XMLID_64_" class="st3" points="174.7,180.5 174.7,231.6 99.8,274.9 99.8,227.7 155.1,195.7 161.1,188.1 		"/>
		<polygon id="XMLID_52_" class="st5" points="174.6,186.1 100.9,228.6 105.5,231.3 178.4,188.5 		"/>
		<polygon id="XMLID_51_" class="st5" points="104.1,275.9 100.9,274.3 100.9,228.6 103.7,228.6 		"/>
		<polygon id="XMLID_50_" class="st3" points="178.4,186.6 178.4,233.7 103.5,277.1 103.5,229.8 		"/>
		<polygon id="XMLID_48_" class="st0" points="103.5,277.1 99.8,274.9 100.8,274.2 103.9,275.8 		"/>
	</g>
	<g id="XMLID_75_">
		<polygon id="XMLID_80_" class="st7" points="179.9,182.3 180.9,233.4 106.9,278.2 105.9,231 160.6,197.9 166.4,190.2 		"/>
		<polygon id="XMLID_79_" class="st5" points="179.8,187.9 107,231.9 111.7,234.5 183.7,190.1 		"/>
		<polygon id="XMLID_78_" class="st5" points="111.2,279.1 107.9,277.5 107,231.9 109.9,231.8 		"/>
		<polygon id="XMLID_77_" class="st7" points="183.7,188.2 184.7,235.4 110.6,280.3 109.7,233.1 		"/>
		<polygon id="XMLID_76_" class="st7" points="110.6,280.3 106.9,278.2 107.9,277.5 111,279 		"/>
	</g>
	<g id="XMLID_46_">
		<polygon id="XMLID_85_" class="st8" points="193.3,190.4 192.2,241.5 116.3,283.2 117.4,236 173.4,205.2 179.5,197.7 		"/>
		<polygon id="XMLID_84_" class="st5" points="193,196 118.4,236.9 123,239.7 196.8,198.4 		"/>
		<polygon id="XMLID_83_" class="st5" points="120.6,284.2 117.4,282.5 118.4,236.9 121.3,236.9 		"/>
		<polygon id="XMLID_82_" class="st8" points="196.9,196.5 195.8,243.7 120,285.4 121,238.2 		"/>
		<polygon id="XMLID_81_" class="st6" points="120,285.4 116.3,283.2 117.4,282.5 120.4,284.1 		"/>
	</g>
	<g id="XMLID_35_">
		<polygon id="XMLID_47_" class="st0" points="213.7,210.3 213.7,212.9 212.5,210.9 138.7,253.5 136.2,248.9 211.1,205.1 		"/>
		<polygon id="XMLID_27_" class="st3" points="213.7,210.3 213.7,258.5 138.8,301.8 138.7,253.5 		"/>
		<polygon id="XMLID_9_" class="st3" points="213.7,193.9 213.7,202.2 138.7,246 138.7,237.2 		"/>
		<polygon id="XMLID_32_" class="st5" points="166.8,242 166.8,257.4 142.3,271.6 142.3,256.2 		"/>
		<polygon id="XMLID_44_" class="st3" points="138.8,301.8 133.7,298.7 133.7,235 138.1,236.8 138.8,237 138.8,247.4 136.2,248.9 
			138.7,253.5 138.8,253.5 		"/>
		<polygon id="XMLID_34_" class="st3" points="213.7,193.9 208.6,191.2 133.7,235 138.7,237.2 		"/>
		<polygon id="XMLID_42_" class="st4" points="211.7,203.3 211.1,205.2 136.2,248.9 136.2,247 		"/>
	</g>
	<polygon id="XMLID_43_" class="st2" points="133.7,258.7 133.7,294.1 93,270.8 93,235.2 	"/>
</g>
</svg>
