<?xml version="1.0" encoding="utf-8"?>
<!-- Generator: Adobe Illustrator 19.0.0, SVG Export Plug-In . SVG Version: 6.00 Build 0)  -->
<svg version="1.1" xmlns="http://www.w3.org/2000/svg" xmlns:xlink="http://www.w3.org/1999/xlink" x="0px" y="0px"
	 viewBox="0 0 261.8 279.2" style="enable-background:new 0 0 261.8 279.2;" xml:space="preserve">
<style type="text/css">
	.st0{opacity:0.53;fill:#333333;}
	.st1{fill:#D6D8DE;}
	.st2{fill:#333333;}
	.st3{fill:#46BCDF;}
	.st4{fill:#3B4D7B;}
	.st5{fill:none;stroke:#468FA0;stroke-miterlimit:10;}
	.st6{fill:#66BF71;}
	.st7{fill:none;stroke:#66BF71;stroke-miterlimit:10;}
	.st8{fill:#EF4545;}
	.st9{fill:none;stroke:#EF4545;stroke-miterlimit:10;}
	.st10{fill:#626666;fill-opacity:0.1;}
</style>
<g id="Layer_6">
	<g id="Layer_2">
		<path id="XMLID_8_" class="st0" d="M255.4,273.2H8.6c-1.1,0-2-0.9-2-2l0,0c0-1.1,0.9-2,2-2h246.8c1.1,0,2,0.9,2,2l0,0
			C257.4,272.3,256.5,273.2,255.4,273.2z"/>
		<ellipse id="XMLID_6_" class="st0" cx="130.9" cy="191" rx="51.7" ry="5"/>
		<ellipse id="XMLID_4_" class="st1" cx="130.9" cy="190" rx="41.7" ry="5"/>
		<rect id="XMLID_3_" x="107.6" y="167.5" class="st1" width="46.7" height="25.9"/>
	</g>
</g>
<g id="Layer_1">
	<path id="XMLID_1_" class="st2" d="M248.8,167.5H13c-6.4,0-11.6-5.2-11.6-11.6V16.7C1.4,10.3,6.6,5.1,13,5.1h235.8
		c6.4,0,11.6,5.2,11.6,11.6v139.2C260.4,162.3,255.2,167.5,248.8,167.5z"/>
	<rect id="XMLID_50_" x="12.3" y="13.3" class="st3" width="237.2" height="146"/>
	<path id="XMLID_32_" class="st4" d="M236,22.2H28.5c-2.6,0-4.7,2.1-4.7,4.7l217-0.2C240.6,24.2,238.5,22.2,236,22.2z"/>
	<path id="XMLID_33_" class="st1" d="M23.8,26.9C23.8,26.9,23.8,26.9,23.8,26.9l0,119.5c0,2.6,2.1,4.8,4.8,4.8H236
		c2.6,0,4.8-2.1,4.8-4.8V26.9c0-0.1,0-0.2,0-0.2L23.8,26.9z"/>
</g>
<g id="Layer_4">
	<line id="XMLID_9_" class="st5" x1="41.8" y1="32.4" x2="41.8" y2="113.9"/>
	<line id="XMLID_10_" class="st5" x1="41.3" y1="114.3" x2="140" y2="114.3"/>
	<rect id="XMLID_11_" x="54.1" y="63.1" class="st6" width="5.7" height="23.7"/>
	<rect id="XMLID_12_" x="66.2" y="56.1" class="st6" width="5.7" height="13.9"/>
	<line id="XMLID_13_" class="st7" x1="57" y1="97.9" x2="57" y2="86.8"/>
	<line id="XMLID_14_" class="st7" x1="57" y1="63.1" x2="57" y2="56.1"/>
	<line id="XMLID_15_" class="st7" x1="69" y1="56.1" x2="69" y2="53"/>
	<line id="XMLID_17_" class="st7" x1="69" y1="70" x2="69" y2="77"/>
	<rect id="XMLID_19_" x="82.6" y="73.5" class="st8" width="5.7" height="9.5"/>
	<line id="XMLID_22_" class="st9" x1="85.5" y1="59.6" x2="85.5" y2="73.5"/>
	<rect id="XMLID_23_" x="105.4" y="59.3" class="st6" width="5.7" height="23.7"/>
	<line id="XMLID_24_" class="st7" x1="108.3" y1="94.1" x2="108.3" y2="83"/>
	<rect id="XMLID_25_" x="122.5" y="83.5" class="st8" width="5.7" height="4.6"/>
	<line id="XMLID_26_" class="st9" x1="125.3" y1="69.6" x2="125.3" y2="83.5"/>
	<line id="XMLID_27_" class="st9" x1="125.3" y1="95.1" x2="125.3" y2="88.1"/>
	<rect id="XMLID_7_" x="41.8" y="120.7" class="st10" width="98.3" height="21.1"/>
	<rect id="XMLID_28_" x="154.3" y="41.9" class="st10" width="30.8" height="11"/>
	<rect id="XMLID_29_" x="154.3" y="86.3" class="st10" width="71.2" height="23.6"/>
	<rect id="XMLID_30_" x="154.3" y="118.1" class="st10" width="71.2" height="23.6"/>
	<rect id="XMLID_35_" x="193.8" y="41.9" class="st10" width="31.7" height="11"/>
	<rect id="XMLID_38_" x="154.3" y="58.2" class="st10" width="71.2" height="23.6"/>
</g>
<g id="Layer_5">
	<path id="XMLID_37_" class="st1" d="M251.7,271.7H12.8c-2.4,0-4-1.9-3.6-4.3l8.1-46.5c0.4-2.1,2.4-3.7,4.7-3.7h220.6
		c2.2,0,4.3,1.7,4.7,3.7l8.1,46.5C255.7,269.7,254.1,271.7,251.7,271.7z"/>
	<path id="XMLID_36_" class="st10" d="M251.7,271.2H12.8c-2.4,0-4-1.9-3.6-4.2l8.1-45.6c0.4-2,2.4-3.7,4.7-3.7h220.6
		c2.2,0,4.3,1.6,4.7,3.7l8.1,45.6C255.7,269.3,254.1,271.2,251.7,271.2z"/>
	<path id="XMLID_45_" class="st1" d="M251.7,270.2H12.8c-2.4,0-4-1.9-3.6-4.3l8.1-46.5c0.4-2.1,2.4-3.7,4.7-3.7h220.6
		c2.2,0,4.3,1.7,4.7,3.7l8.1,46.5C255.7,268.2,254.1,270.2,251.7,270.2z"/>
	<polygon id="XMLID_41_" class="st10" points="243.2,227.4 21.3,227.4 22.2,220.9 242.3,220.9 	"/>
	<polygon id="XMLID_42_" class="st10" points="244.8,239.6 19.3,239.6 20.1,233.1 243.9,233.1 	"/>
	<polygon id="XMLID_43_" class="st10" points="246.6,251.8 17.6,251.8 18.5,245.2 245.7,245.2 	"/>
	<polygon id="XMLID_48_" class="st10" points="248.4,263.6 15.9,263.6 16.8,257.1 247.5,257.1 	"/>
</g>
<g id="Layer_3">
	<rect id="XMLID_5_" x="107.6" y="165.5" class="st10" width="46.7" height="8.2"/>
</g>
</svg>
